import '../src/assets/css/bloodsyncsvg.css'


<?xml version="1.0" encoding="UTF-8"?>
<svg id="Layer_1" data-name="Layer 1" xmlns="http://www.w3.org/2000/svg" viewBox="0 0 632.65 423.08">
  <defs>
    <style>
      .cls-1, .cls-2, .cls-3, .cls-4 {
        stroke-miterlimit: 10;
      }

      .cls-1, .cls-3 {
        stroke: red;
      }

      .cls-1, .cls-4 {
        fill: #fff;
      }

      .cls-2 {
        fill: #f90000;
        stroke: #f90000;
      }

      .cls-3 {
        fill: red;
      }

      .cls-4 {
        stroke: #fff;
      }
    </style>
  </defs>
  <g>
    <path class="cls-2" d="M108.76,209.97v126.89h373.36V83.08H108.76v126.89ZM279.99,181.44c0,1.84-3.03,6.3-7.98,11.8-7.27,8-9.08,11.74-9.08,18.69,0,8.13,3.41,13.97,9.85,16.85,12.42,5.64,25.49-2.95,25.56-16.85,0-6.49-2.38-11.41-9.21-18.69-5.66-6.03-9.27-12-7.53-12.33,1.67-.39,7.53,1.11,11.14,2.82,1.87.85,5.09,3.21,7.15,5.18l3.67,3.61,3.54-3.41c2-1.9,5.15-4.2,7.08-5.18,3.48-1.71,11.27-3.67,11.91-2.95.84.85-3.54,7.48-8.5,12.92-6.44,7.15-8.11,10.49-8.5,16.85-.45,8.2,2.38,13.9,8.69,17.44,8.75,4.85,20.15,1.57,24.59-7.08,1.42-2.82,1.67-4.07,1.67-9.18,0-7.54-1.22-10.16-8.3-18.03-4.96-5.44-9.33-12.07-8.56-12.92.71-.72,8.56,1.11,11.97,2.82,4.83,2.43,10.43,8.33,13.07,13.84,2.06,4.33,2.12,4.72,2.12,12.33s-.13,8.07-2.06,12.33c-8.37,17.97-31.09,22.43-45,8.79l-3.67-3.67-2.96,3.08c-15.32,15.87-41.78,8.46-47.38-13.31-3.93-15.41,5.15-31.21,20.34-35.35,4.18-1.18,6.37-1.31,6.37-.39ZM213.5,183.61c3.73,1.44,6.24,3.41,7.72,6.23,2.83,5.25,2.38,10.75-1.29,15.02l-2.06,2.36,1.61,1.05c6.05,3.87,8.63,9.97,7.15,16.72-1.09,4.85-3.86,8.46-8.3,10.69-3.48,1.71-4.18,1.84-14.42,2.03l-10.81.26v-33.58h6.31c10.56-.07,13.65-1.51,13.65-6.49,0-1.77-.45-2.89-1.67-4.07-1.54-1.44-2.19-1.57-9.98-1.84l-8.3-.2v-9.9l8.88.39c5.54.2,9.85.72,11.52,1.31ZM240.85,204.85l.19,22.82,7.6.2,7.53.2v9.77l-12.68-.13-12.75-.2-.19-26.89c-.06-14.75,0-27.28.19-27.67.19-.59,1.87-.85,5.15-.85h4.83l.13,22.76ZM381.31,184.07c9.91,3.21,16.48,13.77,16.48,26.56,0,9.18-3.41,17.25-9.27,22.03-4.89,4-8.37,4.72-21.95,4.79l-11.59.07.06-6.56c0-5.31.32-7.34,1.54-10.49,2.19-5.57,2.19-15.28,0-20.98-1.54-3.93-2.51-14.16-1.67-16.53.64-1.64,20.41-.85,26.39,1.11ZM338.96,205.9c1.93,5.97.26,12.85-4.25,17.18l-2.06,1.97,1.93-3.15c3.99-6.43,4.25-13.44.77-20.46l-1.93-3.93,2.25,2.56c1.22,1.38,2.7,4,3.28,5.84ZM269.11,214.89c1.03,3.34,3.67,6.95,6.63,9.18,3.54,2.69,1.35,2.49-2.57-.2-4.18-2.89-6.05-6.62-5.99-11.87.06-3.67.13-3.8.64-1.71.32,1.25.9,3.34,1.29,4.59Z"/>
    <path class="cls-2" d="M203.39,220.79v7.21h2.45c4.18-.07,7.85-1.11,9.53-2.69,1.48-1.38,1.61-1.97,1.35-4.72-.13-1.71-.77-3.67-1.42-4.39-1.42-1.64-4.83-2.62-8.82-2.62h-3.09v7.21Z"/>
    <path class="cls-2" d="M364.96,209.97v17.38h5.34c8.69,0,12.49-1.84,15.45-7.48,1.16-2.23,1.35-3.8,1.42-9.25,0-5.9-.19-6.89-1.74-9.97-2.96-5.64-7.72-8.07-15.71-8.07h-4.76v17.38Z"/>
  </g>
  <rect class="cls-4" x="403.31" y="68.82" width="168.13" height="280.22"/>
  <rect class="cls-4" x="78.73" y="39.03" width="397.56" height="119.68"/>
  <rect class="cls-4" x="53.04" y="259.12" width="436.67" height="163.46"/>
  <rect class="cls-4" x=".5" y=".5" width="174.55" height="349.69"/>
  <rect class="cls-1" x="402.73" y="159.68" width="229.43" height="98.46"/>
  <g>
    <path class="cls-3" d="M419.95,228.81c3.48,1.97,8.56,3.61,13.92,3.61,7.94,0,12.58-3.86,12.58-9.45,0-5.18-3.21-8.13-11.33-11.01-9.81-3.2-15.88-7.89-15.88-15.69,0-8.63,7.76-15.03,19.45-15.03,6.16,0,10.62,1.31,13.29,2.71l-2.14,5.83c-1.96-.99-5.98-2.63-11.42-2.63-8.21,0-11.33,4.52-11.33,8.3,0,5.18,3.66,7.72,11.96,10.68,10.17,3.62,15.35,8.13,15.35,16.27,0,8.54-6.87,15.94-21.06,15.94-5.8,0-12.13-1.56-15.35-3.53l1.96-6Z"/>
    <path class="cls-3" d="M478.39,237.52v-23.5l-19-31.88h8.83l8.48,15.28c2.32,4.19,4.1,7.56,5.98,11.42h.18c1.69-3.61,3.75-7.23,6.07-11.42l8.65-15.28h8.83l-20.16,31.79v23.58h-7.85Z"/>
    <path class="cls-3" d="M512.65,237.52v-55.37h8.48l19.27,28.01c4.46,6.49,7.94,12.32,10.8,17.99l.18-.08c-.71-7.4-.89-14.13-.89-22.76v-23.17h7.32v55.37h-7.85l-19.09-28.1c-4.19-6.16-8.21-12.49-11.24-18.48l-.27.08c.45,6.98.62,13.64.62,22.84v23.66h-7.32Z"/>
    <path class="cls-3" d="M613.38,235.71c-2.85,1.31-8.56,2.63-15.88,2.63-16.95,0-29.71-9.86-29.71-28.01s12.76-29.08,31.41-29.08c7.5,0,12.22,1.48,14.28,2.46l-1.87,5.83c-2.94-1.31-7.14-2.3-12.13-2.3-14.1,0-23.47,8.3-23.47,22.84,0,13.56,8.48,22.26,23.11,22.26,4.73,0,9.55-.9,12.67-2.3l1.61,5.67Z"/>
  </g>
</svg>